<svg xmlns="http://www.w3.org/2000/svg" viewBox="0 0 474.9 485.6"><path fill="#262e45" d="M374.4 47.5c2 .8 19 8.5 15 3.8A53 53 0 0 0 374.5 39C92.3-123-129 261.3 86.6 436c8 6.6 13.8 11.3 15.7 11.4 2.6.2 50.6 34.6 15.4-21C-16 216 142.7-65.2 374.4 47.4M474 214.7a242 242 0 0 0-25.3-88.8C357.4 16 6.3 129 126.4 412.8c3.7 8.8 8.6 13.7 11 12s13.4-2.5 12.2-11c-32-222 246.3-275 324.5-199.2M191 444.3c2 6.2 1.8 8.7 3.7 9.6 1 .3 26.2 8 27 1.5 8-68.4 194.5-139.3 207-80.6 16.7-25 34-50 40.7-80.6.2-4.3 1.6-5.7 1.6-5.7-16.6-53.5-327 0-280 155.6" opacity=".4" style="isolation:isolate"/><path fill="#000000" d="M126.2 26.5c7-6.3 13.6-12.3 11-12.7-1.8-.3-8.6 3-18 8.2-174 99-133 406.8 93.7 462.4v.2c6.5.6 13.2 1 19.8 1a237.3 237.3 0 0 0 78-13c22-8.3 34.3-14.6 55.3-27.6 2.4-1.5 4.7-3 7-4.7C175.2 502-52.5 196.6 126 26.5m29.5 25.7c1.6-8.5 2.6-12 .5-14s-6.8 3-12.5 10.8C32 202.7 276 436.2 435 375.7a248 248 0 0 0 35.6-86.2c-87.2 67-342.4-90.3-315-237.3m292.7 73.3C429 183 248.5 84 221.3 29.5c-3-6-5.4-7.4-6.4-7-2 .6-3.5 2.8-4.8 9.2-16.8 80.8 162.7 227 264.7 189.5a26.8 26.8 0 0 0-.6-7 246.8 246.8 0 0 0-26-88.7"/></svg>
