<svg xmlns="http://www.w3.org/2000/svg" viewBox="0 0 48 48"><path d="M47 48H1c-.6 0-1-.4-1-1V5c0-.6.4-1 1-1h8c.6 0 1 .4 1 1s-.4 1-1 1H2v40h44V6h-7c-.6 0-1-.4-1-1s.4-1 1-1h8c.6 0 1 .4 1 1v42c0 .6-.4 1-1 1z"/><path d="M15 10H9c-.6 0-1-.4-1-1V1c0-.6.4-1 1-1h6c.6 0 1 .4 1 1v8c0 .6-.4 1-1 1zm-5-2h4V2h-4v6zM39 10h-6c-.6 0-1-.4-1-1V1c0-.6.4-1 1-1h6c.6 0 1 .4 1 1v8c0 .6-.4 1-1 1zm-5-2h4V2h-4v6z"/><path d="M33 6H15c-.6 0-1-.4-1-1s.4-1 1-1h18c.6 0 1 .4 1 1s-.4 1-1 1zM47 16H1c-.6 0-1-.4-1-1s.4-1 1-1h46c.6 0 1 .4 1 1s-.4 1-1 1zM16 44c-.6 0-1-.4-1-1V19c0-.6.4-1 1-1s1 .4 1 1v24c0 .6-.4 1-1 1zM32 44c-.6 0-1-.4-1-1V19c0-.6.4-1 1-1s1 .4 1 1v24c0 .6-.4 1-1 1z"/><path d="M43 26H5c-.6 0-1-.4-1-1s.4-1 1-1h38c.6 0 1 .4 1 1s-.4 1-1 1zM43 36H5c-.6 0-1-.4-1-1s.4-1 1-1h38c.6 0 1 .4 1 1s-.4 1-1 1z"/></svg>